<?xml version="1.0" encoding="iso-8859-1"?>
<!-- Generator: Adobe Illustrator 17.1.0, SVG Export Plug-In . SVG Version: 6.00 Build 0)  -->
<!DOCTYPE svg PUBLIC "-//W3C//DTD SVG 1.1//EN" "http://www.w3.org/Graphics/SVG/1.1/DTD/svg11.dtd">
<svg version="1.1" id="Capa_1" xmlns="http://www.w3.org/2000/svg" xmlns:xlink="http://www.w3.org/1999/xlink" x="0px" y="0px"
	 viewBox="0 0 488.212 488.212" style="enable-background:new 0 0 488.212 488.212;" xml:space="preserve">
<path d="M481.34,86.068L402.145,6.872c-4.426-4.426-10.328-6.864-16.617-6.864s-12.191,2.438-16.617,6.864L6.871,368.911
	c-9.162,9.163-9.162,24.071,0,33.234l79.196,79.196c4.426,4.426,10.328,6.864,16.617,6.864s12.191-2.438,16.617-6.864
	L481.34,119.302C490.503,110.139,490.503,95.23,481.34,86.068z M470.734,108.695l-22.981,22.981l-11.667-11.667
	c-2.929-2.929-7.678-2.929-10.606,0c-2.929,2.929-2.929,7.678,0,10.606l11.667,11.667l-6.364,6.364l-22.981-22.981
	c-2.929-2.929-7.678-2.929-10.606,0c-2.929,2.929-2.929,7.678,0,10.606l22.981,22.981l-6.364,6.364l-11.667-11.667
	c-2.929-2.929-7.678-2.929-10.606,0c-2.929,2.929-2.929,7.678,0,10.606l11.667,11.667l-6.364,6.364l-11.667-11.667
	c-2.929-2.929-7.678-2.929-10.606,0c-2.929,2.929-2.929,7.678,0,10.606l11.667,11.667l-6.364,6.364l-11.667-11.667
	c-2.929-2.929-7.678-2.929-10.606,0c-2.929,2.929-2.929,7.678,0,10.606l11.667,11.667l-6.364,6.364l-22.981-22.981
	c-2.928-2.93-7.677-2.929-10.606,0s-2.929,7.678,0,10.606l22.981,22.981l-6.364,6.364l-11.667-11.667
	c-2.929-2.929-7.678-2.929-10.606,0c-2.929,2.929-2.929,7.678,0,10.606l11.667,11.667l-6.364,6.364l-11.667-11.667
	c-2.929-2.929-7.678-2.929-10.606,0c-2.929,2.929-2.929,7.678,0,10.606l11.667,11.667l-6.364,6.364l-11.667-11.667
	c-2.929-2.929-7.678-2.929-10.606,0c-2.929,2.929-2.929,7.678,0,10.606l11.667,11.667l-6.364,6.364l-22.981-22.981
	c-2.929-2.929-7.678-2.929-10.606,0c-2.929,2.929-2.929,7.678,0,10.606l22.981,22.981l-6.364,6.364l-11.667-11.667
	c-2.929-2.929-7.678-2.929-10.606,0c-2.929,2.929-2.929,7.678,0,10.606l11.667,11.667l-6.364,6.364l-11.667-11.667
	c-2.929-2.929-7.678-2.929-10.606,0c-2.929,2.929-2.929,7.678,0,10.606l11.667,11.667l-6.364,6.364l-11.667-11.667
	c-2.929-2.929-7.678-2.929-10.606,0c-2.929,2.929-2.929,7.678,0,10.606L233.5,345.93l-6.364,6.364l-22.981-22.981
	c-2.929-2.929-7.678-2.929-10.606,0c-2.929,2.929-2.929,7.678,0,10.606l22.981,22.981l-6.364,6.364l-11.667-11.667
	c-2.929-2.929-7.678-2.929-10.606,0c-2.929,2.929-2.929,7.678,0,10.606l11.667,11.667l-6.364,6.364l-11.667-11.667
	c-2.929-2.929-7.678-2.929-10.606,0c-2.929,2.929-2.929,7.678,0,10.606l11.667,11.667l-6.364,6.364l-11.667-11.667
	c-2.929-2.929-7.678-2.929-10.606,0c-2.929,2.929-2.929,7.678,0,10.606l11.667,11.667l-6.364,6.364l-22.981-22.981
	c-2.929-2.929-7.678-2.929-10.606,0c-2.929,2.929-2.929,7.678,0,10.606l22.981,22.981l-6.364,6.364l-11.667-11.667
	c-2.929-2.929-7.678-2.929-10.606,0c-2.929,2.929-2.929,7.678,0,10.606l11.667,11.667l-22.981,22.981
	c-1.593,1.593-3.728,2.47-6.011,2.47c-2.283,0-4.417-0.877-6.01-2.47l-79.196-79.196c-3.314-3.314-3.314-8.707,0-12.021
	l362.04-362.039c1.593-1.593,3.727-2.47,6.01-2.47s4.417,0.877,6.01,2.47l79.196,79.196c1.593,1.593,2.47,3.728,2.47,6.011
	C473.204,104.968,472.327,107.102,470.734,108.695z"/>
<g>
</g>
<g>
</g>
<g>
</g>
<g>
</g>
<g>
</g>
<g>
</g>
<g>
</g>
<g>
</g>
<g>
</g>
<g>
</g>
<g>
</g>
<g>
</g>
<g>
</g>
<g>
</g>
<g>
</g>
</svg>
