<?xml version="1.0" encoding="UTF-8" standalone="no"?>
<svg
   xmlns:dc="http://purl.org/dc/elements/1.1/"
   xmlns:cc="http://creativecommons.org/ns#"
   xmlns:rdf="http://www.w3.org/1999/02/22-rdf-syntax-ns#"
   xmlns:svg="http://www.w3.org/2000/svg"
   xmlns="http://www.w3.org/2000/svg"
   xmlns:sodipodi="http://sodipodi.sourceforge.net/DTD/sodipodi-0.dtd"
   xmlns:inkscape="http://www.inkscape.org/namespaces/inkscape"
   width="1792"
   height="1792"
   viewBox="0 0 1792 1792"
   id="svg5360"
   version="1.1"
   inkscape:version="0.91 r13725"
   sodipodi:docname="compress.svg">
  <metadata
     id="metadata5368">
    <rdf:RDF>
      <cc:Work
         rdf:about="">
        <dc:format>image/svg+xml</dc:format>
        <dc:type
           rdf:resource="http://purl.org/dc/dcmitype/StillImage" />
        <dc:title></dc:title>
      </cc:Work>
    </rdf:RDF>
  </metadata>
  <defs
     id="defs5366" />
  <sodipodi:namedview
     pagecolor="#ffffff"
     bordercolor="#666666"
     borderopacity="1"
     objecttolerance="10"
     gridtolerance="10"
     guidetolerance="10"
     inkscape:pageopacity="0"
     inkscape:pageshadow="2"
     inkscape:window-width="732"
     inkscape:window-height="480"
     id="namedview5364"
     showgrid="false"
     inkscape:zoom="0.13169643"
     inkscape:cx="896"
     inkscape:cy="896"
     inkscape:window-x="0"
     inkscape:window-y="0"
     inkscape:window-maximized="0"
     inkscape:current-layer="svg5360" />
  <path
     d="M896 960v448q0 26-19 45t-45 19-45-19l-144-144-332 332q-10 10-23 10t-23-10l-114-114q-10-10-10-23t10-23l332-332-144-144q-19-19-19-45t19-45 45-19h448q26 0 45 19t19 45zm755-672q0 13-10 23l-332 332 144 144q19 19 19 45t-19 45-45 19h-448q-26 0-45-19t-19-45v-448q0-26 19-45t45-19 45 19l144 144 332-332q10-10 23-10t23 10l114 114q10 10 10 23z"
     id="path5362"
     style="fill:#1a1a1a" />
</svg>
