<?xml version="1.0" encoding="UTF-8" standalone="no"?>
<!-- Created with Inkscape (http://www.inkscape.org/) -->

<svg
   xmlns:dc="http://purl.org/dc/elements/1.1/"
   xmlns:cc="http://creativecommons.org/ns#"
   xmlns:rdf="http://www.w3.org/1999/02/22-rdf-syntax-ns#"
   xmlns:svg="http://www.w3.org/2000/svg"
   xmlns="http://www.w3.org/2000/svg"
   xmlns:sodipodi="http://sodipodi.sourceforge.net/DTD/sodipodi-0.dtd"
   xmlns:inkscape="http://www.inkscape.org/namespaces/inkscape"
   width="26"
   height="52"
   viewBox="0 0 26 52"
   id="svg8711"
   version="1.1"
   inkscape:version="0.91 r13725"
   sodipodi:docname="fullscreen.svg">
  <defs
     id="defs8713" />
  <sodipodi:namedview
     id="base"
     pagecolor="#ffffff"
     bordercolor="#666666"
     borderopacity="1.0"
     inkscape:pageopacity="0.0"
     inkscape:pageshadow="2"
     inkscape:zoom="13.108877"
     inkscape:cx="12.458842"
     inkscape:cy="35.610059"
     inkscape:document-units="px"
     inkscape:current-layer="layer1"
     showgrid="false"
     units="px"
     inkscape:window-width="1366"
     inkscape:window-height="705"
     inkscape:window-x="-8"
     inkscape:window-y="-8"
     inkscape:window-maximized="1" />
  <metadata
     id="metadata8716">
    <rdf:RDF>
      <cc:Work
         rdf:about="">
        <dc:format>image/svg+xml</dc:format>
        <dc:type
           rdf:resource="http://purl.org/dc/dcmitype/StillImage" />
        <dc:title></dc:title>
      </cc:Work>
    </rdf:RDF>
  </metadata>
  <g
     inkscape:label="Layer 1"
     inkscape:groupmode="layer"
     id="layer1"
     transform="translate(0,-1000.3622)">
    <path
       d="M 12.644007,1015.1258 Q 12.644007,1015.2613 12.539837,1015.3654 L 9.0815071,1018.8237 10.581503,1020.3237 Q 10.77942,1020.5217 10.77942,1020.7925 10.77942,1021.0633 10.581503,1021.2613 10.383585,1021.4591 10.11275,1021.4591 L 5.4460897,1021.4591 Q 5.1752542,1021.4591 4.9773371,1021.2613 4.7794199,1021.0633 4.7794199,1020.7925 L 4.7794199,1016.1258 Q 4.7794199,1015.8549 4.9773371,1015.657 5.1752542,1015.4591 5.4460897,1015.4591 5.7169157,1015.4591 5.9148424,1015.657 L 7.4148375,1017.157 10.873166,1013.6988 Q 10.977337,1013.5945 11.11275,1013.5945 11.248173,1013.5945 11.352334,1013.6988 L 12.539837,1014.8861 Q 12.644007,1014.9904 12.644007,1015.1258 Z M 20.77942,1006.1258 20.77942,1010.7925 Q 20.77942,1011.0633 20.581503,1011.2613 20.383586,1011.4591 20.11275,1011.4591 19.841924,1011.4591 19.644007,1011.2613 L 18.144002,1009.7613 14.685674,1013.2195 Q 14.581503,1013.3237 14.44609,1013.3237 14.310667,1013.3237 14.206506,1013.2195 L 13.019003,1012.032 Q 12.914833,1011.9279 12.914833,1011.7925 12.914833,1011.657 13.019003,1011.5529 L 16.477333,1008.0946 14.977337,1006.5945 Q 14.77942,1006.3966 14.77942,1006.1258 14.77942,1005.8549 14.977337,1005.657 15.175254,1005.4591 15.44609,1005.4591 L 20.11275,1005.4591 Q 20.383586,1005.4591 20.581503,1005.657 20.77942,1005.8549 20.77942,1006.1258 Z"
       id="path5927"
       style="fill:#1a1a1a"
       inkscape:connector-curvature="0" />
    <path
       d="M 13.044596,1039.9958 13.044596,1044.7428 Q 13.044596,1045.0182 12.843268,1045.2196 12.641948,1045.4209 12.366452,1045.4209 12.090956,1045.4209 11.889628,1045.2196 L 10.363804,1043.6938 6.8459238,1047.2117 Q 6.7399638,1047.3176 6.6022118,1047.3176 6.4644598,1047.3176 6.3584998,1047.2117 L 5.1505558,1046.0037 Q 5.0445958,1045.8978 5.0445958,1045.76 5.0445958,1045.6222 5.1505558,1045.5162 L 8.6684358,1041.9984 7.1426118,1040.4726 Q 6.9412838,1040.2713 6.9412838,1039.9958 6.9412838,1039.7202 7.1426118,1039.519 7.3439318,1039.3176 7.6194278,1039.3176 L 12.366452,1039.3176 Q 12.641948,1039.3176 12.843268,1039.519 13.044596,1039.7202 13.044596,1039.9958 Z M 21.044596,1032.8752 Q 21.044596,1033.013 20.938636,1033.119 L 17.420756,1036.6368 18.94658,1038.1626 Q 19.147908,1038.364 19.147908,1038.6394 19.147908,1038.915 18.94658,1039.1162 18.74526,1039.3176 18.469764,1039.3176 L 13.72274,1039.3176 Q 13.447244,1039.3176 13.245924,1039.1162 13.044596,1038.915 13.044596,1038.6394 L 13.044596,1033.8924 Q 13.044596,1033.617 13.245924,1033.4156 13.447244,1033.2143 13.72274,1033.2143 13.998236,1033.2143 14.199564,1033.4156 L 15.725388,1034.9414 19.243268,1031.4235 Q 19.349228,1031.3176 19.48698,1031.3176 19.624732,1031.3176 19.730692,1031.4235 L 20.938636,1032.6315 Q 21.044596,1032.7374 21.044596,1032.8752 Z"
       id="path5362"
       style="fill:#1a1a1a"
       inkscape:connector-curvature="0" />
  </g>
</svg>
