<?xml version="1.0" encoding="UTF-8" standalone="no"?>
<!-- Created with Inkscape (http://www.inkscape.org/) -->

<svg
   version="1.1"
   id="svg182"
   width="532"
   height="518"
   viewBox="0 0 532 518"
   sodipodi:docname="overlay.svg"
   inkscape:version="1.2 (dc2aedaf03, 2022-05-15)"
   xmlns:inkscape="http://www.inkscape.org/namespaces/inkscape"
   xmlns:sodipodi="http://sodipodi.sourceforge.net/DTD/sodipodi-0.dtd"
   xmlns="http://www.w3.org/2000/svg"
   xmlns:svg="http://www.w3.org/2000/svg">
  <defs
     id="defs186" />
  <sodipodi:namedview
     id="namedview184"
     pagecolor="#ffffff"
     bordercolor="#666666"
     borderopacity="1.0"
     inkscape:showpageshadow="2"
     inkscape:pageopacity="0.0"
     inkscape:pagecheckerboard="0"
     inkscape:deskcolor="#d1d1d1"
     showgrid="false"
     inkscape:zoom="0.96911197"
     inkscape:cx="201.21514"
     inkscape:cy="260.03187"
     inkscape:window-width="1366"
     inkscape:window-height="705"
     inkscape:window-x="-8"
     inkscape:window-y="-8"
     inkscape:window-maximized="1"
     inkscape:current-layer="g188" />
  <g
     inkscape:groupmode="layer"
     inkscape:label="Image"
     id="g188">
    <path
       style="fill:none;fill-rule:evenodd;stroke:#ffffff;stroke-width:1px;stroke-linecap:butt;stroke-linejoin:miter;stroke-opacity:1"
       d="M 77.67568,115.20728 C 79.981763,112.05577 80.16353,112.2681 80.16353,112.2681 L 80.768009,115.20923 81.221612,117.02854 81.190068,118.9688 80.521849,120.93898 79.066079,121.81725 77.853861,121.08888 77.248731,119.17853 77.098182,117.54132 77.705268,116.35934 77.554067,115.7529"
       id="path354" />
    <path
       style="fill:none;fill-rule:evenodd;stroke:#ffffff;stroke-width:1px;stroke-linecap:butt;stroke-linejoin:miter;stroke-opacity:1"
       d="M 92.457447,87.688827 93.550007,85.870501 94.369428,84.506756 94.40032,83.597267 94.825314,82.718344 96.09899,82.143127 97.281293,82.234826 97.947882,82.841587 98.856394,84.418644 98.369616,87.116545 96.427068,90.692717 94.757987,93.29892 94.029287,95.026526 93.362046,95.450541 92.058455,95.389083 90.300609,94.539096 89.513059,93.447187 89.028889,92.021984 89.453883,91.143061 90.970785,89.476588 91.456259,88.840239 Z"
       id="path356" />
    <path
       style="fill:none;fill-rule:evenodd;stroke:#ffffff;stroke-width:1px;stroke-linecap:butt;stroke-linejoin:miter;stroke-opacity:1"
       d="M 99.102554,78.688894 99.982781,77.052335 100.71083,76.355506 102.83351,75.568607 104.74386,74.963477 105.62311,74.873082 106.56284,75.025261 107.04734,75.935076 107.01579,77.875342 106.01428,79.542141 104.70939,81.542235 103.49586,82.875413 101.97929,84.026499 100.76642,84.328901 99.766209,83.934148 98.857372,82.872479 99.131164,81.387121 98.616754,79.840631 Z"
       id="path358" />
    <path
       style="fill:none;fill-rule:evenodd;stroke:#ffffff;stroke-width:1px;stroke-linecap:butt;stroke-linejoin:miter;stroke-opacity:1"
       d="M 117.03028,62.238126 118.51694,60.450366 119.76038,59.753862 121.36735,59.482026 122.09475,59.815973 122.85206,60.786594 122.88132,62.454046 121.97118,63.45393 120.78855,63.877619 119.4235,65.119751 118.48279,66.513736 117.20912,67.088952 115.75367,67.451835 114.75379,66.541694 114.14833,65.146731 114.66437,64.116281 115.72604,63.207443 Z"
       id="path360" />
    <path
       style="fill:none;fill-rule:evenodd;stroke:#ffffff;stroke-width:1px;stroke-linecap:butt;stroke-linejoin:miter;stroke-opacity:1"
       d="M 125.25082,54.906622 127.31302,53.877149 128.70798,53.271693 129.67828,53.029771 130.82969,54.030959 131.07161,55.001255 130.94967,56.062271 130.6154,57.305055 129.09915,57.940752 127.88628,58.243154 126.97647,58.72765 126.00584,59.48496 124.48959,60.120657 123.58043,59.574377 122.61079,58.785522 121.85348,57.814901 122.46056,56.632923 123.94657,55.875939 Z"
       id="path362" />
    <path
       style="fill:none;fill-rule:evenodd;stroke:#ffffff;stroke-width:1px;stroke-linecap:butt;stroke-linejoin:miter;stroke-opacity:1"
       d="M 163.21722,39.772158 165.76425,39.137113 168.00822,38.319975 169.22109,38.017573 169.85744,38.503046 170.88822,38.503698 171.49465,38.352497 172.16091,39.474646 171.70535,40.74767 170.61377,41.019832 170.06749,41.928996 168.82406,42.625499 166.15574,43.290784 162.75971,44.137511 161.30426,44.500394 160.42534,44.0754 159.33474,42.801398 159.57829,41.194754 160.36714,40.22511 161.7013,39.892467 Z"
       id="path364" />
    <path
       style="fill:none;fill-rule:evenodd;stroke:#ffffff;stroke-width:1px;stroke-linecap:butt;stroke-linejoin:miter;stroke-opacity:1"
       d="M 179.52983,36.477929 181.50066,36.115372 183.31997,35.661768 183.8656,35.783381 184.25937,36.329336 185.47224,36.026933 186.53358,35.633484 186.98882,34.875848 188.53498,34.876826 189.32286,35.453347 189.80735,36.363162 190.04895,37.848846 189.59339,39.12187 188.71381,39.727653 185.89397,40.301891 184.80239,40.574053 183.71113,40.330827 182.49826,40.63323 180.86105,40.783779 180.13366,40.449832 179.64884,40.055405 178.31468,40.388048 176.98052,40.72069 176.19265,40.14417 175.82976,38.688726 176.31524,38.052377 176.922,37.385788 178.16543,36.689284 Z"
       id="path366" />
    <path
       style="fill:none;fill-rule:evenodd;stroke:#ffffff;stroke-width:1px;stroke-linecap:butt;stroke-linejoin:miter;stroke-opacity:1"
       d="M 448.15259,109.40856 447.91099,107.92287 449.36644,107.55999 450.21545,107.34831 450.91228,108.07636 451.54765,110.10799 452.00125,111.9273 452.24317,112.89759 452.51566,113.47379 453.24338,113.29235 453.72755,114.71755 454.0602,116.05171 454.87766,117.78029 455.57482,117.99295 456.33115,120.50974 456.84523,122.57161 457.42045,123.84529 458.08736,123.93666 458.90418,126.69602 459.56946,129.36434 459.99282,131.06235 460.14403,131.66879 459.32526,132.00176 457.68772,132.6677 456.90017,131.57579 456.1744,128.6649 455.41742,127.17889 454.81131,126.8147 453.81306,123.32762 452.90389,122.78134 452.32868,121.50766 451.51219,118.23292 450.75488,117.26229 449.63436,115.35162 449.39277,113.86593 448.54408,113.56223 447.81734,112.1975 447.45478,110.22667 447.51559,109.95386 Z"
       id="path368" />
    <path
       style="fill:none;fill-rule:evenodd;stroke:#ffffff;stroke-width:1px;stroke-linecap:butt;stroke-linejoin:miter;stroke-opacity:1"
       d="M 458.71719,134.7299 459.93039,133.91211 461.05221,133.76123 462.77949,135.00532 464.08178,137.12833 465.29367,138.37209 466.08122,139.464 466.86909,140.04052 467.17182,140.73801 467.53503,141.67806 467.65599,142.16321 466.80666,142.89028 465.04816,143.07107 463.47241,141.91803 461.62417,140.18879 459.89689,138.9447 458.71524,137.82223 458.10945,136.94265 457.74657,135.48721 Z"
       id="path370" />
    <path
       style="fill:none;fill-rule:evenodd;stroke:#ffffff;stroke-width:1px;stroke-linecap:butt;stroke-linejoin:miter;stroke-opacity:1"
       d="M 468.01855,144.13404 470.14058,144.37792 470.95837,145.59111 471.50335,146.7435 472.19985,147.98694 472.62322,149.68496 473.92583,151.29258 475.4411,152.20305 476.62243,153.84091 477.4698,156.20617 477.74197,157.29775 477.77188,157.93443 476.37692,158.53988 474.70979,158.05376 473.13502,155.35455 472.46941,153.20163 470.65173,151.07829 468.13658,149.25768 467.22807,147.68062 466.71365,146.13413 466.1082,144.73917 466.86649,144.16363 Z"
       id="path372" />
    <path
       style="fill:none;fill-rule:evenodd;stroke:#ffffff;stroke-width:1px;stroke-linecap:butt;stroke-linejoin:miter;stroke-opacity:1"
       d="M 479.04458,158.90537 480.40865,159.20941 481.31749,160.27108 481.92327,161.15065 482.68091,161.60588 483.13516,162.39441 483.46748,164.24396 483.43659,165.15345 482.16291,165.72866 480.61707,165.2123 478.89012,163.45282 477.83008,161.78472 477.19438,160.26847 477.89219,159.45035 Z"
       id="path374" />
    <path
       style="fill:none;fill-rule:evenodd;stroke:#ffffff;stroke-width:1px;stroke-linecap:butt;stroke-linejoin:miter;stroke-opacity:1"
       d="M 482.85941,166.9721 484.43582,167.09436 485.67828,167.94402 486.19269,169.49051 486.55557,170.94596 486.6154,172.21931 486.12992,172.85566 485.28091,173.06734 483.6746,172.3084 482.76608,170.73134 482.58497,169.48823 481.70572,169.57863 481.22155,168.15342 481.52526,167.30474 Z"
       id="path382" />
    <path
       style="fill:none;fill-rule:evenodd;stroke:#ffffff;stroke-width:1px;stroke-linecap:butt;stroke-linejoin:miter;stroke-opacity:1"
       d="M 488.64606,173.1301 490.00915,174.9803 490.22083,175.82931 490.61461,176.37526 490.85653,177.34556 491.73545,177.77055 492.21995,178.68037 492.40106,179.92348 492.24856,181.37859 491.06593,181.80228 490.03515,181.80163 488.85383,180.16377 487.40001,177.94971 486.76432,176.43346 486.34095,174.73544 486.15951,174.00772 486.82675,173.58371 487.52423,173.28098 Z"
       id="path384" />
    <path
       style="fill:none;fill-rule:evenodd;stroke:#ffffff;stroke-width:1px;stroke-linecap:butt;stroke-linejoin:miter;stroke-opacity:1"
       d="M 494.96072,207.24068 494.87098,205.33065 495.35678,204.17891 496.14564,203.20927 497.26746,203.05839 497.99485,203.39234 498.99441,204.81787 499.35729,206.27331 499.38656,207.94077 498.65818,209.15298 498.38406,211.15373 498.14084,212.24499 496.86749,212.30481 495.77656,211.5462 494.74643,210.51477 494.7175,208.33193 Z"
       id="path386" />
    <path
       style="fill:none;fill-rule:evenodd;stroke:#ffffff;stroke-width:1px;stroke-linecap:butt;stroke-linejoin:miter;stroke-opacity:1"
       d="M 500.06415,239.07671 501.51927,239.22922 502.21577,240.47265 502.39656,242.23115 502.27462,243.29217 501.8493,244.68648 502.48467,246.71812 502.39265,248.41581 502.11951,248.87039 502.08829,250.29527 501.54201,251.20443 500.26833,251.77965 499.1774,251.02103 498.14793,248.95883 498.27085,246.35165 498.02925,244.86596 498.12128,243.16827 498.63732,242.13782 498.27444,240.68238 498.91176,239.62169 Z"
       id="path388" />
    <path
       style="fill:none;fill-rule:evenodd;stroke:#ffffff;stroke-width:1px;stroke-linecap:butt;stroke-linejoin:miter;stroke-opacity:1"
       d="M 502.60075,254.93409 504.29811,255.5415 505.02453,257.42161 504.47727,259.87694 503.9609,261.42277 503.95927,263.99972 503.71605,265.09097 503.35153,266.21247 502.89598,267.48549 501.83431,268.39433 500.19742,268.02949 499.259,265.81576 499.16925,263.90573 499.50385,262.14756 500.47545,259.84409 500.62828,257.87358 500.2654,256.41814 501.1453,255.29697 Z"
       id="path390" />
    <path
       style="fill:none;fill-rule:evenodd;stroke:#ffffff;stroke-width:1px;stroke-linecap:butt;stroke-linejoin:miter;stroke-opacity:1"
       d="M 498.79789,275.85038 499.34483,273.91044 499.5279,272.06122 499.71064,270.72739 500.80255,269.93984 501.56051,269.87969 502.16597,271.27465 502.19491,273.45749 502.04208,275.428 502.07134,277.09545 501.67626,278.61105 501.28118,280.12664 501.09843,281.46047 501.12802,282.61254 500.73327,283.61275 499.27815,283.46024 498.24835,281.91343 497.37073,279.42688 498.15992,277.94185 Z"
       id="path392" />
    <path
       style="fill:none;fill-rule:evenodd;stroke:#ffffff;stroke-width:1px;stroke-linecap:butt;stroke-linejoin:miter;stroke-opacity:1"
       d="M 497.09401,285.55073 498.42849,284.7027 499.21669,284.76383 499.85206,286.79547 500.09301,289.31193 499.72817,290.94882 499.75776,292.10088 499.51421,293.70752 499.72491,296.1027 499.60297,297.16371 499.45079,298.10344 499.05604,299.10365 497.75212,299.55758 496.6303,299.70846 496.05573,297.404 495.90551,295.25141 495.72505,292.97752 496.3627,291.40144 495.9091,289.58214 496.42514,288.55169 496.18387,286.55061 Z"
       id="path394" />
    <path
       style="fill:none;fill-rule:evenodd;stroke:#ffffff;stroke-width:1px;stroke-linecap:butt;stroke-linejoin:miter;stroke-opacity:1"
       d="M 494.01855,306.80097 494.62629,304.58822 494.86984,302.98158 495.20412,301.73879 495.93216,301.04196 497.1756,300.34546 498.32734,300.83126 498.87199,302.49904 498.08248,304.49946 497.56644,305.52991 497.74756,306.77302 497.50401,308.37966 497.04812,310.16807 496.83481,311.896 496.19748,312.95669 496.4394,313.92699 496.28722,314.86672 495.19531,315.65427 493.52786,315.68353 492.80079,314.8342 492.37743,313.13618 492.92436,311.19624 493.47162,308.74091 Z"
       id="path396" />
    <path
       style="fill:none;fill-rule:evenodd;stroke:#ffffff;stroke-width:1px;stroke-linecap:butt;stroke-linejoin:miter;stroke-opacity:1"
       d="M 492.95069,317.50218 494.16323,317.71517 494.52644,318.65523 495.01061,320.08043 494.73682,321.56579 494.22078,322.59624 494.58366,324.05168 494.12843,324.80932 492.91426,327.17327 492.15499,329.29498 491.18339,331.59845 490.27292,333.11372 489.15077,333.77999 487.39293,332.93 487.4248,330.47435 488.0631,327.86749 489.5205,324.41228 490.31001,322.41186 491.25104,320.50249 491.3125,319.1989 490.76753,318.04651 491.37429,317.37992 Z"
       id="path398" />
    <path
       style="fill:none;fill-rule:evenodd;stroke:#ffffff;stroke-width:1px;stroke-linecap:butt;stroke-linejoin:miter;stroke-opacity:1"
       d="M 481.04729,347.7813 482.35316,344.23504 483.59855,340.44621 484.50935,338.41555 485.20781,336.56665 486.23923,335.53653 487.20953,335.29461 488.05821,335.59831 488.87568,337.3269 488.20713,339.81247 487.87253,341.57064 487.44689,343.48034 486.23271,345.84429 484.92749,348.35977 484.28951,350.45124 484.07653,351.66378 484.07588,352.69456 483.2867,354.17959 481.73988,355.20939 480.04186,355.63275 479.34503,354.90471 478.80071,352.72154 479.92416,349.99372 Z"
       id="path400" />
    <path
       style="fill:none;fill-rule:evenodd;stroke:#ffffff;stroke-width:1px;stroke-linecap:butt;stroke-linejoin:miter;stroke-opacity:1"
       d="M 474.55175,359.96461 475.37183,357.57008 476.37334,355.90329 477.01067,354.8426 477.98096,354.60067 478.52626,355.23767 479.07091,356.90545 478.82704,359.02748 478.18938,360.60356 477.43012,362.72527 476.51965,364.24054 475.12469,364.846 473.8819,364.51173 473.1854,363.26829 473.36815,361.93446 Z"
       id="path402" />
    <path
       style="fill:none;fill-rule:evenodd;stroke:#ffffff;stroke-width:1px;stroke-linecap:butt;stroke-linejoin:miter;stroke-opacity:1"
       d="M 470.20816,373.02847 471.08872,370.87652 471.75661,369.42173 472.60627,368.17927 473.78955,366.72481 475.00242,366.4224 476.06344,366.54434 476.75962,368.30317 475.72786,369.84868 474.66587,371.2729 473.66403,373.45509 472.99581,375.42527 471.81285,376.36435 470.1454,376.39361 469.4489,375.15017 Z"
       id="path404" />
    <path
       style="fill:none;fill-rule:evenodd;stroke:#ffffff;stroke-width:1px;stroke-linecap:butt;stroke-linejoin:miter;stroke-opacity:1"
       d="M 466.04928,381.66617 467.80908,379.42383 468.90131,378.12089 469.50775,377.96969 470.71997,378.69806 470.99213,379.78965 470.29367,381.63854 468.65483,384.36603 466.56108,387.33577 465.98423,388.63903 465.25618,389.33586 464.40718,389.54754 463.46745,389.39536 462.92247,388.24297 463.22683,386.36351 464.86534,384.15141 Z"
       id="path406" />
    <path
       style="fill:none;fill-rule:evenodd;stroke:#ffffff;stroke-width:1px;stroke-linecap:butt;stroke-linejoin:miter;stroke-opacity:1"
       d="M 454.18622,396.08954 456.73455,393.39294 458.22154,391.08979 459.82916,389.78718 460.67817,389.5755 461.6179,389.72768 462.22368,390.60725 462.28319,392.39599 460.1592,395.24444 456.91273,399.27454 456.09396,399.60751 454.84988,401.33479 453.93941,402.85006 453.15056,403.81971 451.96825,403.72801 450.90821,402.05991 451.12153,400.33197 452.63875,398.15011 Z"
       id="path408" />
    <path
       style="fill:none;fill-rule:evenodd;stroke:#ffffff;stroke-width:1px;stroke-linecap:butt;stroke-linejoin:miter;stroke-opacity:1"
       d="M 443.44499,410.36203 445.29584,407.96816 447.14636,406.08968 447.96578,404.72594 448.60278,404.18063 449.69437,403.90847 450.20943,404.42419 450.45135,405.39448 450.23804,407.12241 448.62976,409.4558 447.35544,411.0618 446.29344,412.48602 445.83788,413.75904 443.74576,414.15184 442.74555,413.75709 441.89785,411.90722 442.59566,411.0891 Z"
       id="path410" />
    <path
       style="fill:none;fill-rule:evenodd;stroke:#ffffff;stroke-width:1px;stroke-linecap:butt;stroke-linejoin:miter;stroke-opacity:1"
       d="M 435.61725,419.78565 437.31658,417.30074 438.43938,415.6037 439.77418,414.24028 441.22963,413.8774 442.22984,414.27215 443.13868,415.33382 443.35036,416.18283 442.3186,417.72834 440.68009,419.94044 439.16319,421.60692 438.49562,422.54632 437.10066,423.15178 435.88779,423.45418 434.67524,423.24119 434.58583,420.81578 Z"
       id="path412" />
    <path
       style="fill:none;fill-rule:evenodd;stroke:#ffffff;stroke-width:1px;stroke-linecap:butt;stroke-linejoin:miter;stroke-opacity:1"
       d="M 428.15403,428.08778 430.49003,425.57295 431.58226,424.27001 433.28028,423.84665 434.15953,423.75625 434.88692,424.0902 435.15909,425.18178 434.43006,427.42478 432.79154,429.63688 430.51603,432.39428 429.66637,433.63674 428.08931,434.54525 426.14905,434.51371 424.99763,433.51252 424.57427,431.8145 425.90908,430.45108 Z"
       id="path414" />
    <path
       style="fill:none;fill-rule:evenodd;stroke:#ffffff;stroke-width:1px;stroke-linecap:butt;stroke-linejoin:miter;stroke-opacity:1"
       d="M 418.7203,436.23707 420.17607,435.3588 420.69211,434.32835 421.87474,433.90466 423.60267,434.11798 424.784,435.75584 424.8435,437.54458 424.26633,439.36323 423.02289,440.05973 420.5061,440.81607 419.14171,441.02742 418.3844,440.0568 417.77927,438.14645 417.84073,436.84286 Z"
       id="path416" />
    <path
       style="fill:none;fill-rule:evenodd;stroke:#ffffff;stroke-width:1px;stroke-linecap:butt;stroke-linejoin:miter;stroke-opacity:1"
       d="M 409.77302,442.20386 411.01679,440.99196 412.59352,440.59884 413.77615,440.17515 414.14033,439.56904 414.83814,438.75093 415.80844,438.509 416.74751,439.69196 417.62611,440.63234 418.01891,442.72446 416.74458,444.33045 415.34929,445.4513 414.16633,446.39038 413.68053,447.54211 412.07356,447.81395 410.40676,446.81243 409.28592,445.41715 408.8928,443.84042 Z"
       id="path452" />
    <path
       style="fill:none;fill-rule:evenodd;stroke:#ffffff;stroke-width:1px;stroke-linecap:butt;stroke-linejoin:miter;stroke-opacity:1"
       d="M 394.33217,457.26162 395.8185,455.98925 396.88017,455.08041 397.63878,453.98948 398.67021,452.95935 400.00437,452.62671 401.0953,453.38532 401.45851,454.32538 401.27576,455.65921 400.4261,456.90167 399.36443,457.81051 398.121,458.50701 397.51456,458.65821 396.54362,459.93091 394.99713,460.44532 393.78426,460.74772 393.05719,459.89839 392.72454,458.56423 393.54364,457.71587 Z"
       id="path454" />
    <path
       style="fill:none;fill-rule:evenodd;stroke:#ffffff;stroke-width:1px;stroke-linecap:butt;stroke-linejoin:miter;stroke-opacity:1"
       d="M 370.58886,465.37154 374.07594,464.37329 378.71508,463.34545 381.65654,462.22558 382.74812,461.95342 383.47584,461.77198 383.74833,462.34817 384.02049,463.43975 383.50445,464.4702 380.98767,465.22654 380.47195,465.7416 379.86519,466.40819 378.28846,466.80131 377.49993,467.25557 376.52931,468.01288 372.19322,469.22281 369.58539,470.13067 368.10003,469.85688 367.22176,468.40111 367.58627,467.27961 368.2236,466.21892 369.28494,465.82547 Z"
       id="path456" />
    <path
       style="fill:none;fill-rule:evenodd;stroke:#ffffff;stroke-width:1px;stroke-linecap:butt;stroke-linejoin:miter;stroke-opacity:1"
       d="M 356.79108,471.00177 360.79355,470.00384 363.15881,469.15646 364.73554,468.76334 365.43269,468.976 366.00791,470.24968 366.06774,471.52303 364.49068,472.43154 363.9444,473.3407 361.82172,474.1276 358.78954,474.8836 356.3638,475.48841 354.54482,475.42662 353.5147,474.3952 353.18206,473.06104 353.66786,471.9093 355.03258,471.18256 355.88159,470.97088 Z"
       id="path458" />
    <path
       style="fill:none;fill-rule:evenodd;stroke:#ffffff;stroke-width:1px;stroke-linecap:butt;stroke-linejoin:miter;stroke-opacity:1"
       d="M 343.02419,475.72251 345.02559,474.96585 346.23846,474.66345 347.45166,473.84566 347.90689,473.08802 349.60491,472.66466 350.69649,472.39249 351.4538,473.36312 351.78644,474.69727 352.05861,475.78886 351.05774,476.42488 348.26814,477.1204 347.87372,477.60523 347.84315,477.99933 346.56947,478.57454 343.90116,479.23983 342.74877,479.78481 342.38458,480.39091 340.656,481.20838 339.20056,481.57126 337.44238,481.23666 336.65483,480.14475 336.56477,478.75012 337.77829,477.41694 339.71888,476.93309 341.4777,476.23692 Z"
       id="path460" />
    <path
       style="fill:none;fill-rule:evenodd;stroke:#ffffff;stroke-width:1px;stroke-linecap:butt;stroke-linejoin:miter;stroke-opacity:1"
       d="M 324.85976,482.95677 327.58855,482.53406 329.01408,481.5345 329.86342,480.80743 331.80401,480.32359 333.19897,479.71813 334.22975,479.71878 335.10867,480.14378 335.62341,481.17488 335.80485,481.9026 335.19809,482.56919 334.68205,483.59964 331.83164,484.56798 328.52665,485.26318 326.10091,485.86798 323.97823,486.65488 322.58359,486.74495 321.46242,485.86505 321.52388,484.56146 322.37321,483.83439 323.40431,483.31965 Z"
       id="path462" />
    <path
       style="fill:none;fill-rule:evenodd;stroke:#ffffff;stroke-width:1px;stroke-linecap:butt;stroke-linejoin:miter;stroke-opacity:1"
       d="M 309.79124,484.52372 312.70213,483.79795 314.764,483.28387 316.9166,483.13365 317.79585,483.04325 318.79606,483.43801 319.12903,484.25677 319.34071,485.10578 319.15829,485.92423 317.45995,486.86298 314.79164,487.52826 312.60847,488.07259 311.51689,488.34475 309.75839,488.52554 308.09061,489.07019 307.05951,489.58492 306.08921,489.82685 305.45319,488.82598 305.12055,487.49183 305.24249,486.43081 306.45568,485.61302 307.66855,485.31062 308.3966,484.61379 Z"
       id="path464" />
    <path
       style="fill:none;fill-rule:evenodd;stroke:#ffffff;stroke-width:1px;stroke-linecap:butt;stroke-linejoin:miter;stroke-opacity:1"
       d="M 298.66243,488.45788 300.84592,487.39817 301.48292,486.85287 302.5745,486.58071 303.33214,487.03594 303.66478,488.3701 303.81598,488.97653 303.23946,489.76441 303.23913,490.2798 301.48031,490.97597 299.17586,491.55054 298.08428,491.8227 297.66059,490.64007 297.2977,489.18463 297.84366,488.79085 Z"
       id="path466" />
    <path
       style="fill:none;fill-rule:evenodd;stroke:#ffffff;stroke-width:1px;stroke-linecap:butt;stroke-linejoin:miter;stroke-opacity:1"
       d="M 290.83893,491.18146 292.77952,490.69762 294.26553,489.94063 295.05373,490.00177 295.90241,490.30547 296.17458,491.39706 296.38626,492.24606 295.65821,492.94289 295.08169,493.73077 293.01981,494.24485 291.3826,494.3954 290.35215,493.87936 289.62508,493.03003 289.62573,491.99925 Z"
       id="path468" />
    <path
       style="fill:none;fill-rule:evenodd;stroke:#ffffff;stroke-width:1px;stroke-linecap:butt;stroke-linejoin:miter;stroke-opacity:1"
       d="M 281.71151,494.35897 283.16696,493.99609 284.86497,493.57272 286.1988,493.75547 286.92653,493.57403 287.65425,493.39259 288.26036,493.75677 288.65381,494.81812 289.01669,496.27356 288.65218,497.39506 288.07598,497.66754 287.77227,498.51623 287.89324,499.00137 287.34728,499.39515 285.10331,500.21229 282.79886,500.78685 281.91993,500.36186 281.04101,499.93687 280.40434,499.96678 279.37486,497.90458 279.3456,496.23712 280.01317,495.29772 280.52888,494.78266 Z"
       id="path470" />
    <path
       style="fill:none;fill-rule:evenodd;stroke:#ffffff;stroke-width:1px;stroke-linecap:butt;stroke-linejoin:miter;stroke-opacity:1"
       d="M 270.43509,492.01743 272.13278,492.10946 273.98265,491.26175 275.6501,491.23249 276.65063,491.11185 277.95423,491.17331 278.68129,492.02265 279.01394,493.3568 278.74047,494.32677 276.82979,495.44729 274.85896,495.80985 273.79795,495.68791 272.97983,494.9901 272.0401,494.83792 270.46337,495.23105 269.46316,494.83629 269.4947,492.89603 Z"
       id="path472" />
    <path
       style="fill:none;fill-rule:evenodd;stroke:#ffffff;stroke-width:1px;stroke-linecap:butt;stroke-linejoin:miter;stroke-opacity:1"
       d="M 254.73119,491.55274 257.36862,491.79695 259.12679,492.13154 260.79391,492.61767 262.34008,492.61865 263.49214,492.58906 264.94758,492.22618 266.00893,491.83273 266.82704,492.53054 267.00783,494.28903 266.70413,495.13772 265.79431,495.62221 263.55034,496.43935 261.70145,495.74089 260.61019,495.49767 259.48869,495.13315 258.03325,495.49604 256.39604,495.64658 255.54768,494.82749 254.3657,494.2204 253.12259,494.40152 252.36463,494.46167 252.00175,493.00623 252.7906,492.03659 253.73066,491.67338 Z"
       id="path474" />
    <path
       style="fill:none;fill-rule:evenodd;stroke:#ffffff;stroke-width:1px;stroke-linecap:butt;stroke-linejoin:miter;stroke-opacity:1"
       d="M 244.81558,494.66912 246.63488,494.21551 247.84775,493.91311 248.66587,494.61092 249.21117,495.24792 250.21105,496.15806 250.48322,497.24964 250.45232,498.15913 249.54251,498.64363 248.54197,498.76426 247.69329,498.46056 246.48075,498.24757 245.78392,497.51952 244.54081,497.70064 243.54125,496.27511 243.69343,495.33538 Z"
       id="path476" />
    <path
       style="fill:none;fill-rule:evenodd;stroke:#ffffff;stroke-width:1px;stroke-linecap:butt;stroke-linejoin:miter;stroke-opacity:1"
       d="M 229.65927,491.23371 231.23568,491.35598 233.29723,491.35728 234.66162,491.14593 236.45036,491.08642 237.96629,490.96611 238.87545,491.5124 239.81485,492.17996 240.87522,493.33268 241.05666,494.0604 241.2381,494.78812 240.38877,495.51519 238.69107,495.42317 236.26534,496.02797 234.96174,495.96651 234.02234,495.29895 232.93076,495.57111 231.93022,495.69174 231.23339,494.96369 230.14181,495.23586 228.41355,495.53793 227.5652,494.71884 227.26312,492.99058 227.74892,491.83884 228.65873,491.35435 Z"
       id="path478" />
    <path
       style="fill:none;fill-rule:evenodd;stroke:#ffffff;stroke-width:1px;stroke-linecap:butt;stroke-linejoin:miter;stroke-opacity:1"
       d="M 216.80807,486.19297 219.26307,487.25561 221.17244,488.19665 222.71828,488.71301 224.26412,489.22938 224.68814,489.89662 224.86958,490.62434 225.08126,491.47335 224.77755,492.32204 223.71621,492.71548 222.10956,492.47193 220.32148,491.50066 217.4119,490.16487 216.04815,489.34545 215.04794,488.9507 214.65449,487.88936 214.80667,486.94963 215.65601,486.22256 Z"
       id="path480" />
    <path
       style="fill:none;fill-rule:evenodd;stroke:#ffffff;stroke-width:1px;stroke-linecap:butt;stroke-linejoin:miter;stroke-opacity:1"
       d="M 200.40963,481.39252 203.34978,482.3342 206.1384,483.18484 208.68445,484.09596 210.86664,485.0978 212.07886,485.82617 212.38126,487.03904 212.59294,487.88805 211.37974,488.70584 209.34843,488.82583 207.65107,488.21841 204.95349,487.21625 201.55876,486.00142 198.37636,484.60483 196.70956,483.60331 195.74025,482.29907 196.07452,481.05629 197.31795,480.35978 199.04589,480.5731 Z"
       id="path482" />
    <path
       style="fill:none;fill-rule:evenodd;stroke:#ffffff;stroke-width:1px;stroke-linecap:butt;stroke-linejoin:miter;stroke-opacity:1"
       d="M 186.73999,476.16935 188.86202,476.41323 190.68067,476.9904 192.10522,477.53701 193.52977,478.08362 193.92322,479.14496 194.37683,480.96426 193.04234,481.81229 191.25393,481.35641 190.13276,480.47651 188.28354,480.29343 186.46489,479.71626 185.76806,478.98821 185.28389,477.56301 185.55736,476.59304 Z"
       id="path484" />
    <path
       style="fill:none;fill-rule:evenodd;stroke:#ffffff;stroke-width:1px;stroke-linecap:butt;stroke-linejoin:miter;stroke-opacity:1"
       d="M 172.49349,472.24945 174.43376,472.281 175.67622,473.13066 176.82796,473.61646 178.64693,473.67824 180.04157,473.58817 181.43588,474.01349 182.34504,474.55977 182.98074,476.07602 183.40411,477.77404 183.49417,479.16868 182.64451,480.41114 181.21931,480.89531 179.61299,480.13637 178.67359,479.4688 176.27874,479.16411 174.03542,478.95048 171.73162,478.49426 170.24626,478.22047 168.57946,477.21896 168.39867,475.46046 169.06657,474.00567 170.098,472.97554 171.34143,472.27904 Z"
       id="path486" />
    <path
       style="fill:none;fill-rule:evenodd;stroke:#ffffff;stroke-width:1px;stroke-linecap:butt;stroke-linejoin:miter;stroke-opacity:1"
       d="M 141.75506,463.67659 143.85637,462.97048 146.08551,463.50783 147.69293,464.10909 149.64317,464.98926 150.77901,465.5259 152.51495,466.27731 153.15714,467.75689 153.17783,468.93596 152.6198,469.98603 151.37635,470.11388 148.48272,469.46892 145.86776,468.84558 142.93136,468.02911 141.1738,467.55638 140.40285,466.29108 140.03934,464.83312 140.61853,464.23324 Z"
       id="path490" />
    <path
       style="fill:none;fill-rule:evenodd;stroke:#ffffff;stroke-width:1px;stroke-linecap:butt;stroke-linejoin:miter;stroke-opacity:1"
       d="M 133.95341,461.24924 135.45438,460.69281 136.84773,460.80088 137.87643,461.27316 138.77636,461.95972 139.44039,462.79619 139.37555,463.63221 138.9035,464.29647 137.12387,464.83128 136.1807,464.70205 135.70936,464.27301 134.59444,464.55099 133.77981,464.57191 133.00933,462.57776 133.09555,461.8275 Z"
       id="path492" />
    <path
       style="fill:none;fill-rule:evenodd;stroke:#ffffff;stroke-width:1px;stroke-linecap:butt;stroke-linejoin:miter;stroke-opacity:1"
       d="M 122.18736,456.43983 124.99523,457.10616 126.75279,457.57889 128.31767,457.6442 129.53927,458.15947 130.76087,458.67474 131.12439,460.13271 131.78819,461.33361 131.46583,462.59821 130.6935,463.51953 128.63565,463.30385 126.49227,462.74513 124.43465,462.16502 122.29105,461.97073 121.00506,461.56261 120.25574,460.01864 119.84946,458.38915 119.55009,457.18846 120.68663,456.63182 Z"
       id="path494" />
    <path
       style="fill:none;fill-rule:evenodd;stroke:#ffffff;stroke-width:1px;stroke-linecap:butt;stroke-linejoin:miter;stroke-opacity:1"
       d="M 107.67805,450.49251 108.96449,450.17177 109.86511,449.76502 111.17248,450.25891 112.75806,451.50328 114.00081,452.46874 115.05066,453.39121 116.07935,453.86349 116.80776,454.59281 117.42856,455.98664 117.66355,457.29446 118.00613,457.9378 116.76223,458.79451 114.66115,459.13617 112.36763,458.70598 110.35301,457.93296 107.95281,456.70952 106.21709,455.59367 105.27439,454.73558 104.82488,453.66343 105.23301,452.37745 105.83403,451.13447 106.73466,450.72773 Z"
       id="path496" />
    <path
       style="fill:none;fill-rule:evenodd;stroke:#ffffff;stroke-width:1px;stroke-linecap:butt;stroke-linejoin:miter;stroke-opacity:1"
       d="M 98.824019,451.15147 99.961007,449.86595 101.07547,450.31683 102.12531,451.23931 102.66081,451.92564 103.38921,452.65497 103.83895,453.36268 104.33123,454.60636 103.98772,455.42077 102.85118,455.97741 101.22169,456.38369 99.506892,456.08248 98.157227,454.68821 97.793482,453.59467 98.008695,452.26569 Z"
       id="path498" />
    <path
       style="fill:none;fill-rule:evenodd;stroke:#ffffff;stroke-width:1px;stroke-linecap:butt;stroke-linejoin:miter;stroke-opacity:1"
       d="M 144.60438,432.72288 145.97658,432.38075 146.64084,432.8528 147.00435,434.31077 147.2821,435.79012 148.16042,436.75536 148.65315,437.27016 148.90951,438.66375 149.6593,439.47885 150.28103,439.41493 150.70892,440.76575 150.8586,441.36609 151.41595,441.40932 151.77992,442.13841 152.01514,443.0818 152.78631,443.98266 153.38642,444.19742 154.32981,443.9622 154.88762,443.27656 154.75955,442.39754 154.80324,441.11134 155.55464,439.37538 157.09906,437.89718 158.00038,436.39715 158.79409,435.56159 159.1376,434.74719 160.12399,434.31907 160.76733,433.97648 160.18883,433.48305 159.37466,432.77511 158.56002,432.79603 156.73831,432.06601 155.25966,431.25045 154.27396,430.58527 154.01713,429.92055 153.20296,429.21261 151.87422,428.63296 150.80299,427.62473 150.11688,427.79579 149.58092,427.83833 149.21695,427.10923 148.98174,426.16583 149.32502,425.71587 150.09688,425.52342 151.34033,425.39559 152.34787,425.41766 153.22642,426.01846 154.46894,427.34836 156.26904,428.35705 157.81185,429.42989 158.75478,429.92355 159.84785,430.28867 160.61949,430.46066 161.64841,430.5685 162.20529,431.3406 162.50512,431.81241 163.16868,433.37775 162.80402,433.74195 161.94639,433.95578 161.36744,434.19123 161.60265,435.13462 161.10876,436.44198 159.73541,438.60629 158.46919,440.83496 157.58925,442.42077 157.24552,443.59961 156.85901,444.60692 156.3012,445.29256 155.70086,445.44224 155.01522,444.88444 154.15759,445.09827 153.96445,445.41971 154.19966,446.3631 154.34934,446.96344 153.57725,447.52032 152.54833,447.41248 151.84176,446.04005 151.0922,444.86052 150.49209,444.64577 149.743,442.73737 149.33626,441.83675 148.52185,441.49324 148.28664,440.54985 147.60123,439.62761 147.04435,438.8555 146.83052,437.99788 145.73721,437.99718 145.11641,436.60337 144.86028,434.84535 144.47515,433.66605 Z"
       id="path500" />
    <path
       style="fill:none;fill-rule:evenodd;stroke:#ffffff;stroke-width:1px;stroke-linecap:butt;stroke-linejoin:miter;stroke-opacity:1"
       d="M 109.82443,446.3136 110.46799,445.60657 111.30378,446.03584 111.81812,446.27198 112.52561,446.18668 113.12618,445.67256 112.80544,444.38612 113.36347,443.33604 113.87874,442.11444 114.69429,440.63578 115.0808,439.62847 115.38154,438.64254 116.71168,437.03558 117.44124,435.94274 117.95605,435.45001 118.85644,435.4077 119.39217,435.7296 119.82052,436.35156 118.9192,437.8516 117.67483,439.43717 116.83813,440.46564 116.51578,441.73024 116.10742,443.38065 116.14972,444.28104 116.17065,445.09568 115.65561,445.95285 114.66899,446.74541 114.09003,446.98084 113.3184,446.80886 112.82544,446.65849 112.56768,447.4515 110.93797,448.22222 110.10241,447.4285 Z"
       id="path502" />
    <path
       style="fill:none;fill-rule:evenodd;stroke:#ffffff;stroke-width:1px;stroke-linecap:butt;stroke-linejoin:miter;stroke-opacity:1"
       d="M 121.0129,449.17183 121.31204,450.73694 121.07567,451.61573 120.13228,451.85094 119.23211,451.52881 118.91137,450.24237 118.3761,449.1916 118.74077,448.8274 119.40548,448.57057 119.51309,447.90608 119.23511,446.79116 119.55701,446.25543 120.28611,445.89147 121.4438,445.785 121.95837,445.65671 122.30142,445.57117 122.40902,444.90669 122.28073,444.39211 122.9243,443.68508 123.35358,442.8493 123.89022,441.71347 124.49079,441.19935 125.09114,441.04966 126.01314,440.72869 126.72063,440.64338 127.38534,440.38656 127.38581,439.65769 127.25751,439.14312 127.81532,438.45747 128.28735,437.79322 128.71617,437.6863 128.88792,437.2791 129.31697,436.80775 130.06746,436.52954 130.6248,436.57277 131.13891,437.17333 131.39574,437.83805 131.41689,438.28825 130.49465,438.97367 130.17299,439.14495 129.63656,439.91636 129.6791,440.45232 129.44296,440.96667 128.79963,441.30926 128.11352,441.48033 127.34166,441.67277 127.08437,441.73692 126.95515,442.68008 126.76178,443.36595 126.43988,443.90168 125.51787,444.22266 125.00329,444.35096 124.76716,444.8653 124.76693,445.22974 123.8663,445.63648 123.24458,445.7004 122.9873,445.76455 123.02983,446.30051 123.28666,446.96522 123.17905,447.62972 122.02114,448.10061 120.77746,448.59287 120.28427,448.80693 Z"
       id="path563" />
    <path
       style="fill:none;fill-rule:evenodd;stroke:#ffffff;stroke-width:1px;stroke-linecap:butt;stroke-linejoin:miter;stroke-opacity:1"
       d="M 119.95182,432.12849 120.83129,431.27155 121.06765,430.39277 121.711,430.05018 122.71877,429.70782 123.31911,429.55814 123.66147,430.56591 123.53224,431.50907 123.0602,432.17333 122.22396,432.47292 121.96644,432.9015 121.83745,433.48023 120.95821,433.97273 120.10081,433.82213 119.67246,433.20018 119.58692,432.85713 Z"
       id="path565" />
    <path
       style="fill:none;fill-rule:evenodd;stroke:#ffffff;stroke-width:1px;stroke-linecap:butt;stroke-linejoin:miter;stroke-opacity:1"
       d="M 121.10034,412.62125 121.95889,410.94967 122.73121,410.02836 123.3104,409.42848 124.16803,409.21465 124.8539,409.40802 125.60369,410.22311 125.73176,411.10212 125.19511,412.23796 124.16596,412.49456 123.63,412.5371 123.32948,413.15859 122.98596,413.97299 122.77121,414.5731 122.19202,415.17297 121.50593,415.34404 120.60576,415.02191 120.11326,414.14267 120.28525,413.37104 Z"
       id="path567" />
    <path
       style="fill:none;fill-rule:evenodd;stroke:#ffffff;stroke-width:1px;stroke-linecap:butt;stroke-linejoin:miter;stroke-opacity:1"
       d="M 120.1328,417.14391 120.84074,416.32974 121.52685,416.15867 122.01958,416.67348 122.38332,417.76702 122.70407,419.05346 122.83236,419.56803 122.8319,420.29691 122.72453,420.59695 122.25272,420.89678 122.03796,421.49689 122.27317,422.44028 122.72268,423.51243 122.7866,424.13416 122.03589,424.7768 121.17849,424.6262 120.49308,423.70396 120.10795,422.52466 119.80859,421.32398 120.2804,421.02416 120.79498,420.89586 121.48108,420.7248 121.5027,420.44612 121.03112,420.38152 120.62414,419.84533 120.15348,418.32298 Z"
       id="path569" />
    <path
       style="fill:none;fill-rule:evenodd;stroke:#ffffff;stroke-width:1px;stroke-linecap:butt;stroke-linejoin:miter;stroke-opacity:1"
       d="M 122.80706,425.67766 123.98636,425.29253 124.69361,425.57166 125.40087,425.8508 125.6147,426.70843 125.78576,427.39453 125.91383,428.27354 125.20612,428.72327 124.56278,429.06586 123.81275,428.61521 123.55594,427.95049 122.61277,427.82126 121.94851,427.34922 122.22764,426.64198 Z"
       id="path571" />
    <path
       style="fill:none;fill-rule:evenodd;stroke:#ffffff;stroke-width:1px;stroke-linecap:butt;stroke-linejoin:miter;stroke-opacity:1"
       d="M 126.77031,429.88188 128.03514,429.8398 128.54903,430.80481 128.69871,431.40515 129.06291,431.76981 129.7704,431.68451 130.07022,432.15632 130.26267,432.92819 129.94077,433.46392 129.04014,433.87066 128.1186,433.46277 127.5401,432.96934 126.72593,432.26139 126.49072,431.318 126.29827,430.54614 Z"
       id="path573" />
    <path
       style="fill:none;fill-rule:evenodd;stroke:#ffffff;stroke-width:1px;stroke-linecap:butt;stroke-linejoin:miter;stroke-opacity:1"
       d="M 132.51366,432.82243 134.31467,432.37339 134.74325,432.6309 135.23599,433.14571 135.47121,434.0891 135.68504,434.94672 135.19161,435.52523 133.71226,435.80298 132.51158,436.10234 131.93308,435.60891 131.41919,434.64391 131.6128,433.5936 131.9347,433.05788 Z"
       id="path577" />
    <path
       style="fill:none;fill-rule:evenodd;stroke:#ffffff;stroke-width:1px;stroke-linecap:butt;stroke-linejoin:miter;stroke-opacity:1"
       d="M 139.18201,430.70435 140.64021,429.9764 141.0051,429.24776 140.96256,428.7118 141.75605,428.24069 142.37777,428.17677 143.1494,428.34875 143.36346,428.84195 143.62029,429.50667 143.72721,429.93548 143.81274,430.27853 143.59799,430.87864 142.99742,431.39276 141.71097,431.71351 140.42453,432.03425 139.73843,432.20532 139.18085,432.52652 139.13763,433.08386 139.03001,433.74835 138.49382,434.15533 137.72196,434.34778 137.40075,433.7902 137.07977,432.86819 136.90871,432.18209 136.99471,431.79627 137.57366,431.56083 138.51705,431.32561 139.01025,431.11155 Z"
       id="path579" />
    <path
       style="fill:none;fill-rule:evenodd;stroke:#ffffff;stroke-width:1px;stroke-linecap:butt;stroke-linejoin:miter;stroke-opacity:1"
       d="M 126.89175,407.35132 129.0572,406.90251 130.55817,406.34609 131.30842,406.43231 131.73677,407.05427 131.97198,407.99766 131.5857,408.64054 130.06336,409.1112 128.43386,409.51747 127.31895,409.79545 126.67608,409.40917 125.90467,408.87275 126.07666,408.10112 126.5057,407.62977 Z"
       id="path581" />
    <path
       style="fill:none;fill-rule:evenodd;stroke:#ffffff;stroke-width:1px;stroke-linecap:butt;stroke-linejoin:miter;stroke-opacity:1"
       d="M 133.94523,406.41254 136.0463,406.07088 137.56865,405.60022 138.5978,405.34362 139.09076,405.49399 139.17584,406.56591 138.74656,407.4017 138.3389,407.95881 136.98807,408.3867 135.50872,408.66445 134.6511,408.87828 134.05099,408.66353 133.55826,408.14872 133.0223,408.19126 132.78709,407.24787 133.02322,406.73352 Z"
       id="path583" />
    <path
       style="fill:none;fill-rule:evenodd;stroke:#ffffff;stroke-width:1px;stroke-linecap:butt;stroke-linejoin:miter;stroke-opacity:1"
       d="M 141.01986,405.92396 142.94848,407.0828 144.62004,407.94134 145.13417,408.54192 146.03409,409.22848 146.26931,410.17188 146.11894,410.66484 145.32546,411.13595 144.46783,411.34978 143.37453,411.3491 142.77465,410.76991 141.85333,409.99758 141.27484,409.50416 140.80326,409.43954 140.05347,408.62445 139.86148,407.12372 140.11923,406.3307 Z"
       id="path585" />
    <path
       style="fill:none;fill-rule:evenodd;stroke:#ffffff;stroke-width:1px;stroke-linecap:butt;stroke-linejoin:miter;stroke-opacity:1"
       d="M 147.7912,410.43008 149.16317,410.45239 149.84836,411.73906 150.25394,414.46186 150.96005,416.56316 150.531,417.03451 150.01619,417.52725 150.23002,418.38487 150.33671,419.17812 149.97204,419.54233 148.92151,419.71316 148.23586,419.15535 147.50838,416.96829 147.2304,415.85337 147.65944,415.38203 147.48884,413.96705 147.08256,412.33755 146.80435,411.58708 147.10486,410.96558 Z"
       id="path587" />
    <path
       style="fill:none;fill-rule:evenodd;stroke:#ffffff;stroke-width:1px;stroke-linecap:butt;stroke-linejoin:miter;stroke-opacity:1"
       d="M 145.48845,424.57727 146.6896,423.54903 147.20463,422.69186 148.08388,422.19936 148.96289,422.07129 149.58415,422.73624 149.69083,423.52949 149.26156,424.36528 148.21033,425.62942 147.43823,426.1863 146.73052,426.63604 146.66591,427.10762 146.25824,427.66473 145.31485,427.89994 144.28593,427.79211 143.94357,426.78434 144.33008,425.77702 144.93066,425.2629 Z"
       id="path589" />
    <path
       style="fill:none;fill-rule:evenodd;stroke:#ffffff;stroke-width:1px;stroke-linecap:butt;stroke-linejoin:miter;stroke-opacity:1"
       d="M 101.12584,306.91625 101.9599,306.38623 102.29352,306.17422 102.7029,306.00774 103.05148,306.11407 103.41501,306.53873 103.50541,307.41798 103.42932,307.88785 103.21682,308.32731 102.12524,308.59947 101.27623,308.81115 100.89741,308.58353 100.48852,307.97694 100.36756,307.49179 100.56477,307.24938 Z"
       id="path591" />
    <path
       style="fill:none;fill-rule:evenodd;stroke:#ffffff;stroke-width:1px;stroke-linecap:butt;stroke-linejoin:miter;stroke-opacity:1"
       d="M 98.062614,308.83944 98.805619,308.46094 99.396934,308.2491 99.821438,308.14326 100.13961,308.386 100.56363,309.05324 100.77547,309.64455 100.45681,310.1749 99.728925,310.61403 99.15273,310.88652 98.667582,311.00748 98.167803,310.29472 97.849955,309.53659 Z"
       id="path593" />
    <path
       style="fill:none;fill-rule:evenodd;stroke:#ffffff;stroke-width:1px;stroke-linecap:butt;stroke-linejoin:miter;stroke-opacity:1"
       d="M 97.818247,311.73455 99.152404,311.40191 99.819482,311.23559 100.13749,311.73602 100.22821,312.09988 100.56167,312.14557 101.03154,312.22165 101.28858,313.25259 101.51538,314.16225 101.66658,314.76868 101.77242,315.19319 101.75698,315.64793 101.04437,315.89001 100.25601,316.08658 99.771351,315.43446 99.544549,314.5248 99.332867,313.67579 98.999573,313.37241 98.393138,313.52362 97.908479,312.87149 97.787518,312.38635 Z"
       id="path595" />
    <path
       style="fill:none;fill-rule:evenodd;stroke:#ffffff;stroke-width:1px;stroke-linecap:butt;stroke-linejoin:miter;stroke-opacity:1"
       d="M 102.77247,315.84563 103.86405,315.57347 104.56137,315.52844 104.69745,316.07423 104.74265,316.51385 105.10651,316.42313 105.47053,316.07472 105.77375,315.99912 106.21321,316.21161 106.50082,316.84845 106.68226,317.57617 106.69722,317.89451 105.62059,318.48501 105.15073,318.40892 104.83272,317.90849 104.71176,317.42334 104.31766,317.39278 102.49835,317.84638 101.49765,318.22471 101.42205,317.92149 101.30109,317.43634 101.10437,316.90567 101.54432,316.34509 102.27204,316.16364 Z"
       id="path597" />
    <path
       style="fill:none;fill-rule:evenodd;stroke:#ffffff;stroke-width:1px;stroke-linecap:butt;stroke-linejoin:miter;stroke-opacity:1"
       d="M 104.1429,306.0996 105.35577,305.79719 105.91668,305.72176 106.20445,306.1009 106.53791,306.14659 106.85608,306.38932 107.05264,307.17769 107.17361,307.66284 107.71923,307.78445 108.32567,307.63325 108.73489,307.72446 108.97682,308.69475 109.30995,309.25583 109.55203,309.96843 109.7034,310.31717 109.82387,311.5754 109.77802,312.16655 109.65624,312.96988 109.3831,313.42446 109.07955,314.01545 108.67001,314.43962 108.44239,314.81844 108.16909,315.53072 108.19916,315.9097 107.63793,316.50053 107.22854,316.66701 107.00142,316.27275 106.65316,315.65103 106.48668,315.24164 106.68389,314.99923 106.85087,314.63553 106.66926,314.16551 106.89688,313.78669 107.27602,313.49892 107.51876,313.18074 107.97383,312.6808 108.09544,312.13517 107.97448,311.65002 107.56575,310.78573 107.06548,310.84605 106.76259,310.40626 106.49027,309.57237 106.35418,309.02658 106.2937,308.78401 106.35451,308.51119 106.70325,308.35983 106.67301,308.23854 106.29403,308.26862 106.00593,308.40486 105.74856,307.88931 104.9602,308.08588 104.44481,308.08555 104.15704,307.7064 104.0816,307.14549 Z"
       id="path599" />
    <path
       style="fill:none;fill-rule:evenodd;stroke:#ffffff;stroke-width:1px;stroke-linecap:butt;stroke-linejoin:miter;stroke-opacity:1"
       d="M 111.01656,319.20087 112.35088,318.61053 113.44247,318.33837 114.13978,318.29334 114.79142,318.58176 115.48874,318.53673 115.989,318.47641 116.51935,318.79507 117.2617,319.44736 117.50362,320.41765 117.74555,321.38795 117.57808,322.52473 117.24414,323.25212 115.78853,323.8727 114.09051,324.29606 112.45314,324.70431 111.8015,324.41589 111.2562,323.77888 110.83235,322.85395 110.54507,321.70172 110.25778,320.5495 110.33387,320.07963 110.60701,319.62505 Z"
       id="path601" />
    <path
       style="fill:none;fill-rule:evenodd;stroke:#ffffff;stroke-width:1px;stroke-linecap:butt;stroke-linejoin:miter;stroke-opacity:1"
       d="M 110.7953,309.52962 112.14426,309.77301 113.05358,310.0616 114.35685,310.63844 115.25089,311.12408 116.17517,311.731 116.90257,312.06495 117.29651,312.35321 117.55387,312.86876 117.81141,313.12662 118.22063,313.21783 118.46336,312.89965 118.47897,312.18722 118.75211,311.73263 119.17678,311.3691 119.66193,311.24814 119.88954,310.86932 119.76858,310.38417 119.89003,310.09624 121.16371,309.52102 122.43722,309.2035 123.6805,308.76469 124.68103,308.64405 124.99937,308.6291 125.31754,308.87183 125.49915,309.34186 125.42306,309.81173 125.95357,309.8727 126.42359,309.69109 126.89346,309.76718 127.04482,310.11592 127.13554,310.47978 127.51453,310.44971 127.72653,310.78333 127.92309,311.57169 128.43848,311.57202 128.7113,311.63282 128.90786,312.42119 129.2405,313.75535 129.40682,314.42242 129.20945,314.92253 128.83014,315.46799 128.52676,315.80129 128.54155,316.37732 128.19265,316.78638 127.73774,317.02863 127.07083,316.93725 126.6616,316.84604 126.3431,317.1187 126.41854,317.67961 126.55462,318.2254 126.37237,318.78615 126.06899,319.11944 125.25022,319.45241 124.78035,319.37632 124.65939,318.89117 124.41714,318.43626 124.0684,318.58763 123.18883,319.19341 122.84025,319.08708 122.52224,318.58665 122.58321,318.05614 122.00718,318.07094 121.46139,318.20702 121.21881,318.2675 120.93137,317.37297 121.28043,316.70621 122.17496,316.41877 122.963,316.7376 123.55399,317.04114 124.14498,317.34468 124.63013,317.22372 125.00927,316.93595 125.5097,316.61794 125.72188,316.69387 126.11598,316.72443 126.25271,316.23945 126.10151,315.63301 126.25352,314.95098 126.82972,314.67849 127.37567,314.28471"
       id="path603" />
    <path
       style="fill:none;fill-rule:evenodd;stroke:#ffffff;stroke-width:1px;stroke-linecap:butt;stroke-linejoin:miter;stroke-opacity:1"
       d="M 118.9025,313.62754 119.6603,313.82508 120.28202,313.47683 120.70668,313.11329 120.67677,312.47662 120.72246,312.14316 121.31361,312.18901 121.37458,311.6585 121.40531,311.0067 122.6333,310.76495 123.84617,310.46254 124.28579,310.41735 124.71013,310.5692 124.84621,311.11499 125.02782,311.58502 125.20942,312.05505 125.77017,312.2373 126.19467,312.13146 126.57349,312.35908 126.7551,312.82911 126.93654,313.55683"
       id="path605" />
    <path
       style="fill:none;fill-rule:evenodd;stroke:#ffffff;stroke-width:1px;stroke-linecap:butt;stroke-linejoin:miter;stroke-opacity:1"
       d="M 110.77855,312.04592 112.33951,312.62293 113.03667,312.83559 113.71854,313.2453 113.82438,313.6698 114.1728,314.03383 115.704,313.71647 116.18899,313.8532 116.0825,314.45947 116.14265,315.21743 116.27873,315.76322 116.44505,316.4303 116.93004,316.56704 117.49079,316.74929 117.91513,316.90115 118.46092,316.76506 118.82429,317.44743 119.05142,317.84169 118.71747,318.56909 118.45945,319.08431 118.50449,319.78163 118.86786,320.46399 119.48909,320.88882 119.65557,321.29821 119.91261,322.32914 120.03325,323.32968 120.10869,323.89059 120.68439,324.39119 121.51812,324.37656 122.21544,324.33152 122.32193,323.72525 121.97417,322.33045 121.52056,320.51114 121.23312,319.61661 120.88503,318.7372 120.06675,318.29709 119.49104,317.79649 119.24879,317.34159 119.24912,316.8262 119.17368,316.26529 119.12865,315.56797 118.40125,315.23402 117.47681,314.88479 117.03767,314.15691 116.67414,313.73224 115.90122,313.47406 115.50744,312.9281 114.76476,312.7912 114.02208,312.65431 113.50702,312.13859 C 113.50702,312.13859 113.24933,312.13843 113.00675,312.19891 112.76418,312.25939 112.21855,312.13778 112.21855,312.13778 L 111.97647,311.42518 111.67325,311.50078 110.70312,311.48501 Z"
       id="path607" />
    <path
       style="fill:none;fill-rule:evenodd;stroke:#ffffff;stroke-width:1px;stroke-linecap:butt;stroke-linejoin:miter;stroke-opacity:1"
       d="M 119.51623,325.9063 120.89591,325.49789 121.68427,325.30133 122.04765,325.98369 122.24421,326.77205 122.06195,327.3328 122.34989,327.45425 122.95632,327.30305 123.53219,327.54595 123.66811,328.34944 123.50113,328.71313 123.19775,329.04643 123.21271,329.36477 123.57641,329.53174 124.37989,329.39582 124.94048,329.83577 125.09168,330.44221 125.62137,331.79165 125.78753,332.71642 125.86281,333.53503 125.25637,333.68623 124.52865,333.86767 124.10447,333.45812 123.63526,332.35125 123.45414,331.10814 123.01517,330.12257 122.86397,329.51613 122.28826,329.01554 121.84897,328.54535 121.22774,328.12052 120.59123,327.89274 119.93943,327.86201 119.68206,327.34646 119.25805,326.67921 Z"
       id="path609" />
    <path
       style="fill:none;fill-rule:evenodd;stroke:#ffffff;stroke-width:1px;stroke-linecap:butt;stroke-linejoin:miter;stroke-opacity:1"
       d="M 120.9949,336.74554 121.57126,336.21536 122.02633,335.71542 122.557,335.51869 123.89116,335.18605 124.8161,334.7622 125.2858,335.09598 125.4674,335.56601 125.84606,336.05132 125.96702,336.53647 125.84557,336.8244 124.93592,337.05121 124.11715,337.38417 123.45007,337.5505 123.25285,337.79291 123.13124,338.33854 122.57017,338.67167 121.17537,339.01943 120.35676,339.0947 119.99339,338.41234 119.93307,337.91207 120.06981,337.42709 120.53983,337.24549 Z"
       id="path611" />
    <path
       style="fill:none;fill-rule:evenodd;stroke:#ffffff;stroke-width:1px;stroke-linecap:butt;stroke-linejoin:miter;stroke-opacity:1"
       d="M 96.125896,327.16481 97.399409,326.84729 98.597158,326.48424 98.763643,326.89363 98.643008,325.89309 98.673574,325.49899 C 98.673574,325.49899 98.779741,325.40811 99.022315,325.34763 99.264889,325.28715 99.97749,325.04506 99.97749,325.04506 L 100.46264,324.9241 100.7961,324.96979 100.53889,324.19654 100.58458,323.86308 101.26678,323.75741 102.03986,323.7579 102.44924,323.59141 102.35868,322.96986 102.46501,322.62128 103.07145,322.47008 103.73853,322.30376"
       id="path613" />
    <path
       style="fill:none;fill-rule:evenodd;stroke:#ffffff;stroke-width:1px;stroke-linecap:butt;stroke-linejoin:miter;stroke-opacity:1"
       d="M 103.81478,321.5762 104.1032,320.92457 104.63404,320.47015 104.60396,320.09117 104.46772,319.80307 105.96868,319.36442 106.71169,318.98593 107.0297,319.48636 107.24122,320.59306 107.0588,321.41151 106.81606,321.72968 106.22458,322.19922 105.20876,322.5169 104.60233,322.66811 104.0115,322.10687 C 104.0115,322.10687 103.79917,322.28864 103.85965,322.53121 103.92013,322.77378 104.38934,323.88065 104.38934,323.88065 L 104.54055,324.48708 104.131,324.91126 103.00918,325.06214 102.20569,325.19806 101.84183,325.28878 101.90198,326.04674 101.52268,326.5922 100.50686,326.90989 99.672969,327.18221 99.278542,327.66704 99.47494,328.7131 99.383893,328.86462 97.867806,329.24263 97.534186,329.45463 98.019171,329.59137 99.611184,329.00119 C 99.611184,329.00119 99.990002,329.22881 99.944316,329.56227 99.898629,329.89573 100.06462,331.07819 100.06462,331.07819 L 100.54928,331.73031 101.21636,331.56399 C 101.21636,331.56399 102.08033,331.67065 102.3229,331.61017 102.56548,331.54969 102.74741,331.50433 102.80821,331.23151 102.86902,330.9587 102.6879,329.71559 102.6879,329.71559 L 103.09761,329.03372 C 103.09761,329.03372 104.43177,328.70107 104.61354,328.91341 104.79531,329.12574 105.82608,329.12639 105.82608,329.12639 L 107.32721,328.43005 108.35815,328.17301 108.75258,327.68819 108.7529,327.1728 108.02567,326.58116 107.3438,326.17145 107.02644,324.64024 106.61803,323.26056 106.42131,322.72989 106.37595,322.54796 107.17976,321.89665 107.57419,321.41183 107.25683,319.88062 106.95426,318.92545 104.74069,319.60618 104.31603,319.96972 104.4973,320.95513 Z"
       id="path615" />
    <path
       style="fill:none;fill-rule:evenodd;stroke:#ffffff;stroke-width:1px;stroke-linecap:butt;stroke-linejoin:miter;stroke-opacity:1"
       d="M 107.67921,323.12481 108.52757,323.9439 108.76933,325.17189 109.10197,326.50605 109.99618,326.73399 111.10239,327.29555 112.46614,328.11497 113.64795,328.97975 114.32999,329.13177 114.55679,330.04142 114.6319,331.11772 114.76798,331.66351 C 114.76798,331.66351 114.19179,331.936 113.94922,331.99648 113.70664,332.05696 113.26701,332.10216 113.26701,332.10216 113.26701,332.10216 112.38793,331.93486 112.2668,331.70741 112.14568,331.47995 111.44869,331.0096 111.44869,331.0096 L 110.81234,330.52413 110.10022,329.99313 C 110.10022,329.99313 109.35771,329.59854 109.08489,329.53773 108.81208,329.47693 107.82666,329.6582 107.82666,329.6582 107.82666,329.6582 108.05379,330.05247 107.99299,330.32528 107.93218,330.5981 107.49239,330.90099 107.26494,331.02211 107.03748,331.14324 105.88542,331.17282 105.88542,331.17282 L 104.56687,330.79303 104.06661,330.85335 C 104.06661,330.85335 104.03588,331.50514 103.99019,331.8386 103.9445,332.17206 104.03506,332.79361 104.03506,332.79361 L 103.33709,333.86942 102.4728,334.27815 C 102.4728,334.27815 101.60818,335.20227 101.39585,335.38404 101.18351,335.56581 100.48603,335.86854 100.48603,335.86854 L 99.774245,334.82215 99.001815,333.79089 97.926005,333.09292 97.941777,332.12278 97.745215,331.33442 97.245436,330.62165 V 330.62165"
       id="path617" />
    <path
       style="fill:none;fill-rule:evenodd;stroke:#ffffff;stroke-width:1px;stroke-linecap:butt;stroke-linejoin:miter;stroke-opacity:1"
       d="M 91.621691,330.5423 92.440459,330.20934 93.243945,330.07342 93.850379,329.92222 94.24497,329.1797 94.305939,328.64919 95.215591,328.42239 95.837146,328.33183 96.048991,328.92315 96.063459,330.01457 96.184094,331.0151 C 96.184094,331.0151 95.910954,331.46968 95.66838,331.53017 95.425806,331.59065 93.970525,331.69583 93.970525,331.69583 L 93.545858,332.05937 93.651536,332.74157 C 93.651536,332.74157 93.408799,333.05974 93.166225,333.12022 92.923651,333.1807 92.37786,333.31678 92.37786,333.31678 L 91.756957,332.37657 91.575515,331.64884 91.499915,331.34563"
       id="path619" />
    <path
       style="fill:none;fill-rule:evenodd;stroke:#ffffff;stroke-width:1px;stroke-linecap:butt;stroke-linejoin:miter;stroke-opacity:1"
       d="M 95.210049,337.18399 96.544369,336.59365 97.378257,336.32133 97.212262,335.13886 97.712693,334.82085 98.410011,334.77581 C 98.410011,334.77581 98.636976,335.42777 98.712577,335.73099 98.788177,336.03421 99.030099,337.0045 99.030099,337.0045 L 98.423338,337.67109 C 98.423338,337.67109 97.392399,337.92813 97.089182,338.00373 96.785964,338.07934 95.755025,338.33638 95.755025,338.33638 L 95.255083,337.88131 Z"
       id="path621" />
    <path
       style="fill:none;fill-rule:evenodd;stroke:#ffffff;stroke-width:1px;stroke-linecap:butt;stroke-linejoin:miter;stroke-opacity:1"
       d="M 91.055889,338.34856 92.132351,338.01576 93.512031,337.60735 94.209513,337.30462 C 94.209513,337.30462 94.421847,337.12286 94.527688,337.54736 94.633528,337.97186 94.739043,338.91176 94.739043,338.91176 L 94.60231,339.39674 93.25287,339.92643 C 93.25287,339.92643 92.161451,339.9409 91.903757,339.94074 91.646063,339.94058 91.191318,339.92513 91.191318,339.92513 91.191318,339.92513 90.964353,339.27317 91.010039,338.93972 91.055726,338.60626 91.055889,338.34856 91.055889,338.34856 Z"
       id="path623" />
    <path
       style="fill:none;fill-rule:evenodd;stroke:#ffffff;stroke-width:1px;stroke-linecap:butt;stroke-linejoin:miter;stroke-opacity:1"
       d="M 66.265216,348.71644 66.311392,347.6099 66.887586,347.33741 67.736595,347.12573 68.449197,346.88365 68.646573,346.38354 68.677303,345.73175 C 68.677303,345.73175 68.98052,345.65614 69.344381,345.56542 69.708242,345.4747 70.860468,345.18742 70.860468,345.18742 L 71.527546,345.0211 72.149264,344.67285 71.998063,344.06641 71.983106,343.74808 73.165735,343.32439 74.226915,343.18863 75.212331,343.00735 76.076623,342.59862 76.698504,341.99267 77.123334,341.37145 77.805532,341.26577 78.305963,340.94776 79.018728,340.44798 79.140341,339.90235 79.98935,339.69067 80.656754,339.00896 81.187588,338.55454 81.854667,338.38822 82.400784,337.73675 82.628401,337.35793 83.61398,336.91896 84.281058,336.75264 84.993986,335.99516 85.47946,335.35882 86.040697,334.76799 86.677535,334.48038 87.026602,333.81363 87.315025,333.162 88.315724,332.78367 88.528221,332.34421 88.983292,331.84426 89.407959,331.48073 90.150964,331.10224 90.423778,331.16304 90.62034,331.95141 90.710571,333.08835 90.937536,333.74031 90.967613,334.11929 90.012438,334.42186 C 90.012438,334.42186 89.163429,334.63354 88.920855,334.69402 88.678281,334.7545 87.707985,334.99642 87.707985,334.99642 L 87.131628,335.5266 86.524867,336.19319 85.463198,337.10203 84.613538,338.34449 84.128064,338.98084 83.127365,339.35917 82.747895,340.16233 81.898397,341.14709 81.230993,341.8288 80.200053,342.08584 C 80.200053,342.08584 79.911956,342.22208 79.911793,342.47978 79.91163,342.73747 79.759777,343.16181 79.759777,343.16181 L 78.334574,343.64598 76.59087,344.40281 76.226683,345.00891 74.99853,345.50837 73.603567,346.11382 72.633271,346.35575 71.496328,346.44598 71.101575,347.44619 69.979426,348.11245 69.266987,348.09684 68.70575,348.68767 C 68.70575,348.68767 68.402206,349.27866 68.159632,349.33914 67.917058,349.39962 66.628425,349.6565 66.628425,349.6565 Z"
       id="path625" />
    <path
       style="fill:none;fill-rule:evenodd;stroke:#ffffff;stroke-width:1px;stroke-linecap:butt;stroke-linejoin:miter;stroke-opacity:1"
       d="M 69.521584,352.99319 70.370919,352.26612 71.113761,352.14532 72.417514,351.94909 73.266523,351.73741 73.933601,351.57109 74.50947,351.81398 74.82797,351.54133 74.722456,350.60144 74.950072,350.22262 75.981012,349.96558 77.421335,349.54205 77.967126,349.40597 78.24043,348.6937 78.574213,348.224 79.120005,348.08792 79.680753,348.27017 80.287188,348.11897 C 80.287188,348.11897 80.787619,347.80096 80.712018,347.49774 80.636418,347.19452 80.773151,346.70954 80.773151,346.70954 L 81.607039,346.43721 82.744146,346.08929 83.532511,345.89273 84.017496,346.02946 84.351279,345.55976 84.184958,344.89268 84.033757,344.28625 84.473707,343.72566 85.474243,343.60503 86.262609,343.40846 86.884327,343.06021 87.17275,342.40858 87.324766,341.72654 87.325092,341.21116 87.94681,340.8629 88.977749,340.60586 89.523541,340.46978 89.857324,340.00008 90.054538,339.75767 90.50863,340.80389 90.690072,341.53161 90.022994,341.69793 89.567923,342.19788 89.385666,342.75862 88.187917,343.12167 87.627168,342.93941 C 87.627168,342.93941 87.414835,343.12118 87.460032,343.56081 87.505229,344.00043 87.474337,344.90992 87.474337,344.90992 L 86.9131,345.50075 85.942804,345.74267 85.063555,345.83306 84.59369,345.75697 84.411108,346.83311 84.183165,347.72731 82.954849,348.48446 81.93903,348.80215 81.105467,348.55908 80.590079,348.55876 80.892319,350.02932 80.543415,350.43838 79.739766,350.83199 78.845397,350.86174 78.284649,350.67949 78.420241,351.99836 76.813107,352.52789 75.979382,352.54252 75.752417,351.89056 75.161102,352.10241 75.387741,353.26975 74.76586,353.8757 72.582694,354.42002 70.308645,354.85818 69.823823,354.46375 69.521095,353.76627 Z"
       id="path627" />
    <path
       style="fill:none;fill-rule:evenodd;stroke:#ffffff;stroke-width:1px;stroke-linecap:butt;stroke-linejoin:miter;stroke-opacity:1"
       d="M 115.19412,328.98073 116.46763,328.66321 C 116.46763,328.66321 117.51304,329.49759 117.58864,329.80081 117.66424,330.10402 117.40573,331.39233 117.49645,331.75619 117.58717,332.12005 117.79885,332.96906 117.79885,332.96906 L 118.72314,333.57598 119.42029,333.78864 119.58661,334.45572 119.51036,335.18328 119.00977,335.75899 117.58473,335.98546 116.6754,335.69688 C 116.6754,335.69688 116.17595,334.46872 116.05482,334.24127 115.9337,334.01382 115.37377,332.54309 115.37377,332.54309 L 115.48059,331.42143 115.20842,330.32985 Z"
       id="path629" />
    <path
       style="fill:none;fill-rule:evenodd;stroke:#ffffff;stroke-width:1px;stroke-linecap:butt;stroke-linejoin:miter;stroke-opacity:1"
       d="M 111.18838,335.13254 C 113.18995,334.11819 113.17482,334.05755 113.17482,334.05755 L 113.3722,333.55744 113.6907,333.28479 114.29714,333.13359 114.90309,333.75547 C 114.90309,333.75547 115.06941,334.42255 115.02372,334.75601 114.97804,335.08946 115.21979,336.31745 115.21979,336.31745 115.21979,336.31745 115.2645,337.53016 115.56756,337.71225 115.87061,337.89435 116.47672,338.25853 116.47672,338.25853 L 117.05243,338.75913 117.46099,339.88111 116.88431,340.92668 115.95921,341.60823 C 115.95921,341.60823 115.61047,341.7596 115.68607,342.06281 115.76167,342.36603 115.97335,343.21504 115.97335,343.21504 115.97335,343.21504 115.32107,343.95739 115.10873,344.13916 114.8964,344.32093 114.57774,344.85127 114.57774,344.85127 L 114.25907,345.38162 114.78925,345.95797 114.15225,346.50328 113.49948,348.01871 112.99856,349.10981 112.7103,349.50374 112.45228,350.01897 113.58906,350.18643 114.61935,350.96017 115.57403,351.43068 116.5136,351.84056 117.40797,351.8108 117.30131,352.67477 117.05841,353.25064 115.72426,353.58328 113.84512,352.76353 112.33001,351.59537 112.48187,351.17103 112.04257,350.70084 110.95099,350.973 110.0415,350.94211 110.20896,349.80533 111.30152,347.987 111.98437,346.85055 112.75762,346.59335 113.18212,346.4875 112.83403,345.60809 112.30385,345.03174 112.98686,343.63759 114.62538,341.42549 115.04988,341.31964 115.23214,340.7589 115.24775,340.04646 114.79333,339.51562 113.82303,339.75755 C 113.82303,339.75755 112.98915,340.02987 113.07987,340.39373 113.17059,340.75759 113.23074,341.51555 112.98817,341.57603 112.74559,341.63652 112.16956,341.65131 112.16956,341.65131 L 111.60947,340.43828 111.41323,339.13452 112.232,338.80155 113.24798,338.22618 113.20295,337.52886 112.90022,336.83137 113.67346,336.57417 114.47711,336.18056 114.08334,335.6346 113.40114,335.74028 112.58204,336.58864 112.65732,337.40724 111.44445,337.70965 110.8998,336.04187 Z"
       id="path723" />
    <path
       style="fill:none;fill-rule:evenodd;stroke:#ffffff;stroke-width:1px;stroke-linecap:butt;stroke-linejoin:miter;stroke-opacity:1"
       d="M 116.30224,350.47616 116.37964,347.94474 116.31965,346.92909 116.86576,346.27762 117.41172,345.88384 118.0484,345.85393 118.57891,345.9149 C 118.57891,345.9149 119.29134,345.9305 119.53392,345.87002 119.77649,345.80954 120.67102,345.5221 120.67102,345.5221 L 120.53543,344.20322 120.50519,344.08194 C 120.50519,344.08194 120.88401,344.30955 120.94449,344.55213 121.00497,344.7947 121.15568,346.17422 121.15568,346.17422 121.15568,346.17422 121.39777,346.88682 121.65546,346.88698 121.91316,346.88715 123.24682,347.32759 123.24682,347.32759 123.24682,347.32759 125.08043,348.2231 125.35325,348.2839 125.62606,348.34471 127.79329,349.02821 127.79329,349.02821 L 129.56658,349.42345 130.08148,350.19686 130.26292,350.92458 C 130.26292,350.92458 130.76303,351.12196 130.85375,351.48582 130.94447,351.84968 129.88297,352.50083 129.88297,352.50083 L 127.50389,351.22601 126.30679,350.55828 C 126.30679,350.55828 124.47318,349.66277 124.10949,349.4958 123.74579,349.32882 121.77577,348.40291 121.77577,348.40291 L 120.56355,347.67453 119.95761,347.05265 120.07922,346.50703 C 120.07922,346.50703 119.51831,346.58246 119.21509,346.65806 118.91187,346.73366 117.54731,347.20271 117.54731,347.20271 L 117.168,347.74818 C 117.168,347.74818 117.30392,348.55167 117.45529,348.90041 117.60665,349.24915 117.98498,350.24985 117.98498,350.24985 L 117.93929,350.5833 117.36326,350.5981 Z"
       id="path725" />
    <path
       style="fill:none;fill-rule:evenodd;stroke:#ffffff;stroke-width:1px;stroke-linecap:butt;stroke-linejoin:miter;stroke-opacity:1"
       d="M 123.49429,339.53628 124.91949,339.05211 127.40522,339.46297 129.37491,340.90427 130.70842,341.6024 132.6786,342.27062 133.48176,342.65009 133.90577,343.31733 133.07139,344.36274 132.34367,344.54418 131.22218,344.17967 128.64589,343.14726 127.06997,342.25191 124.85738,341.38648 123.75117,340.82492 123.25122,340.36985 Z"
       id="path727" />
    <path
       style="fill:none;fill-rule:evenodd;stroke:#ffffff;stroke-width:1px;stroke-linecap:butt;stroke-linejoin:miter;stroke-opacity:1"
       d="M 133.32664,348.22831 134.54098,345.60666 135.51193,344.33397 136.80089,343.5617 137.34651,343.68331 137.89165,344.57801 138.20918,345.85152 137.93587,346.5638 136.70674,348.60941 135.37144,350.74591 134.53674,352.30671 133.85405,353.18547 132.62606,353.42723 131.7169,352.88095 131.47514,351.65296 131.76373,350.74363 132.32529,349.63742 132.79565,348.94043 Z"
       id="path729" />
    <path
       style="fill:none;fill-rule:evenodd;stroke:#ffffff;stroke-width:1px;stroke-linecap:butt;stroke-linejoin:miter;stroke-opacity:1"
       d="M 139.31572,345.8977 140.68011,345.68634 141.95297,346.39959 142.99871,346.71858 143.61977,347.40111 143.81634,348.18947 143.33086,348.82582 142.42121,349.05262 141.39076,348.53658 140.19366,347.86885 139.05688,347.70139 138.45077,347.3372 138.72408,346.62493 Z"
       id="path731" />
    <path
       style="fill:none;fill-rule:evenodd;stroke:#ffffff;stroke-width:1px;stroke-linecap:butt;stroke-linejoin:miter;stroke-opacity:1"
       d="M 133.09495,355.04948 133.15608,354.26128 134.36928,353.44349 135.23308,353.80784 136.23313,354.46029 136.89972,355.06705 137.41478,355.58276 137.71751,356.28024 137.74726,357.17461 137.32259,357.53815 136.57975,357.65895 135.74651,356.90049 134.47365,356.18724 134.01923,355.65641 133.38272,355.42863 Z"
       id="path733" />
    <path
       style="fill:none;fill-rule:evenodd;stroke:#ffffff;stroke-width:1px;stroke-linecap:butt;stroke-linejoin:miter;stroke-opacity:1"
       d="M 138.24883,355.05274 139.68916,354.62922 140.05302,354.5385 140.76529,354.8118 141.341,355.31239 141.4922,355.91883 141.34035,356.34317 140.80951,356.79759 139.77857,357.05463 139.05085,357.23607 138.50538,356.85676 138.20298,355.64389 Z"
       id="path735" />
    <path
       style="fill:none;fill-rule:evenodd;stroke:#ffffff;stroke-width:1px;stroke-linecap:butt;stroke-linejoin:miter;stroke-opacity:1"
       d="M 140.69083,352.70472 141.76713,352.62961 C 141.76713,352.62961 142.23651,353.47878 142.35763,353.70624 142.47876,353.93369 142.61484,354.47948 142.61484,354.47948 L 142.31129,355.07047 141.35677,354.34226 140.40208,353.87174 140.17512,353.21979 Z"
       id="path737" />
    <path
       style="fill:none;fill-rule:evenodd;stroke:#ffffff;stroke-width:1px;stroke-linecap:butt;stroke-linejoin:miter;stroke-opacity:1"
       d="M 141.94971,351.55347 142.54201,349.79547 143.02732,349.41681 143.81552,349.47794 144.08768,350.56953 143.96542,352.14593 143.63147,352.87333 142.90391,352.79707 142.16156,352.14479 Z"
       id="path739" />
    <path
       style="fill:none;fill-rule:evenodd;stroke:#000000;stroke-width:0.377953;stroke-linecap:butt;stroke-linejoin:miter;stroke-dasharray:none;stroke-opacity:1"
       d="M 46.617006,185.43203 60.461325,154.15368 73.330135,131.36347 89.356968,100.57157 104.89474,76.085299 117.75833,61.541296 143.23316,47.975413 186.65454,36.118632 234.92219,31.298451 289.9793,28.907922 331.69159,34.997699 379.94619,50.793042 413.40184,73.370026 439.09511,97.882382 447.81995,108.0744 457.02341,128.45322 471.5622,149.56302 488.52281,176.25267 492.87741,193.71799 499.88793,230.10278 501.56312,265.75658 493.04109,318.38143 477.73741,356.20732 461.46605,390.15202 430.64025,427.72555 380.16922,465.04412 325.58552,485.86766 268.82714,493.83543 227.35417,492.83905 198.01381,482.634 172.55202,475.58435 140.05884,465.13477 111.9307,455.65808 80.66279,425.32134 62.734488,394.75051 49.171213,365.15258 32.23668,297.23188 32.759646,237.3259 40.784799,203.37598 Z"
       id="path1397" />
  </g>
</svg>
